<svg width="128" height="33" viewBox="0 0 128 33" fill="none" xmlns="http://www.w3.org/2000/svg">
<path d="M21.1309 16.7039C21.146 15.554 21.4589 14.4266 22.0403 13.4265C22.6217 12.4263 23.4528 11.5861 24.4562 10.9838C23.8188 10.095 22.9778 9.36351 22.0002 8.8475C21.0225 8.3315 19.9351 8.04516 18.8243 8.01123C16.4547 7.76839 14.1575 9.39555 12.9499 9.39555C11.7191 9.39555 9.85994 8.03534 7.85794 8.07555C6.56301 8.11639 5.30099 8.48403 4.19485 9.14263C3.08871 9.80123 2.17618 10.7283 1.54616 11.8336C-1.18286 16.4466 0.852751 23.2262 3.46697 26.955C4.77493 28.7809 6.30355 30.8205 8.30374 30.7481C10.261 30.6689 10.992 29.5296 13.3547 29.5296C15.6954 29.5296 16.3812 30.7481 18.422 30.7021C20.5222 30.6689 21.8455 28.8681 23.1076 27.025C24.0474 25.724 24.7705 24.2861 25.2502 22.7645C24.03 22.2607 22.9888 21.4173 22.2562 20.3395C21.5237 19.2618 21.1323 17.9974 21.1309 16.7039Z" fill="white"/>
<path d="M17.2763 5.55891C18.4214 4.21678 18.9856 2.49169 18.849 0.75C17.0994 0.929399 15.4834 1.74575 14.3227 3.03638C13.7553 3.66689 13.3207 4.40041 13.0437 5.19501C12.7668 5.9896 12.653 6.82969 12.7088 7.66725C13.5839 7.67605 14.4496 7.49087 15.2408 7.12567C16.0319 6.76047 16.7279 6.22477 17.2763 5.55891Z" fill="white"/>
<path d="M36.239 1.37683H38.8263C41.062 1.37683 42.1497 2.70618 42.1497 5.11768C42.1497 7.52917 41.051 8.875 38.8263 8.875H36.239V1.37683ZM37.486 2.42603V7.82581H38.689C40.1721 7.82581 40.8698 6.93042 40.8698 5.13416C40.8698 3.3269 40.1666 2.42603 38.689 2.42603H37.486Z" fill="white"/>
<path d="M46.0938 2.96985C47.6099 2.96985 48.67 3.95312 48.67 5.58459V6.33716C48.67 8.02356 47.6099 8.97388 46.0938 8.97388C44.5557 8.97388 43.5065 8.03455 43.5065 6.34265V5.59009C43.5065 4.00256 44.5721 2.96985 46.0938 2.96985ZM46.0992 3.95312C45.2313 3.95312 44.7369 4.67822 44.7369 5.65051V6.29871C44.7369 7.271 45.1984 7.9906 46.0992 7.9906C46.9891 7.9906 47.4451 7.27649 47.4451 6.29871V5.65051C47.4451 4.67822 46.9672 3.95312 46.0992 3.95312Z" fill="white"/>
<path d="M57.6239 3.06873L56.0968 8.875H54.8553L53.6414 4.59033H53.6084L52.4164 8.875H51.1694L49.5764 3.06873H50.8893L51.8231 7.49622H51.8781L53.0481 3.06873H54.1962L55.3992 7.49622H55.4541L56.4044 3.06873H57.6239Z" fill="white"/>
<path d="M58.8324 8.875V3.06873H60.0299V4.11243H60.0903C60.2386 3.65649 60.6616 2.98083 61.8372 2.98083C63.0072 2.98083 63.7927 3.62903 63.7927 4.95288V8.875H62.5732V5.30994C62.5732 4.42554 62.1118 4.01904 61.4252 4.01904C60.5243 4.01904 60.0519 4.71118 60.0519 5.65051V8.875H58.8324Z" fill="white"/>
<path d="M65.6384 8.875V0.981323H66.8579V8.875H65.6384Z" fill="white"/>
<path d="M71.0437 2.96985C72.5598 2.96985 73.62 3.95312 73.62 5.58459V6.33716C73.62 8.02356 72.5598 8.97388 71.0437 8.97388C69.5056 8.97388 68.4564 8.03455 68.4564 6.34265V5.59009C68.4564 4.00256 69.5221 2.96985 71.0437 2.96985ZM71.0492 3.95312C70.1813 3.95312 69.6869 4.67822 69.6869 5.65051V6.29871C69.6869 7.271 70.1483 7.9906 71.0492 7.9906C71.9391 7.9906 72.395 7.27649 72.395 6.29871V5.65051C72.395 4.67822 71.9171 3.95312 71.0492 3.95312Z" fill="white"/>
<path d="M76.7786 8.96289C75.6525 8.96289 74.8779 8.27075 74.8779 7.1886C74.8779 6.16138 75.592 5.46924 76.9324 5.46924H78.399V4.92542C78.399 4.26074 77.9761 3.94763 77.3059 3.94763C76.6467 3.94763 76.3501 4.22229 76.2567 4.60681H75.0977C75.1691 3.63452 75.8997 2.98083 77.3444 2.98083C78.5858 2.98083 79.613 3.49719 79.613 4.94189V8.875H78.454V8.12244H78.399C78.1409 8.56738 77.6355 8.96289 76.7786 8.96289ZM77.1576 8.01807C77.8497 8.01807 78.399 7.54565 78.399 6.91394V6.28772H77.1246C76.416 6.28772 76.1029 6.64478 76.1029 7.12817C76.1029 7.73242 76.6083 8.01807 77.1576 8.01807Z" fill="white"/>
<path d="M83.3704 2.99182C84.1888 2.99182 84.8151 3.35437 85.0403 3.94214H85.1007V0.981323H86.3202V8.875H85.1337V7.94666H85.0732C84.8975 8.53442 84.1998 8.9519 83.3539 8.9519C82.019 8.9519 81.1511 8.00159 81.1511 6.46899V5.47473C81.1511 3.94214 82.0355 2.99182 83.3704 2.99182ZM83.7109 3.99158C82.8979 3.99158 82.3926 4.59583 82.3926 5.65051V6.28772C82.3926 7.3479 82.9034 7.95215 83.7384 7.95215C84.5624 7.95215 85.1007 7.35339 85.1007 6.36462V5.48572C85.1007 4.59033 84.5129 3.99158 83.7109 3.99158Z" fill="white"/>
<path d="M93.0164 2.96985C94.5325 2.96985 95.5927 3.95312 95.5927 5.58459V6.33716C95.5927 8.02356 94.5325 8.97388 93.0164 8.97388C91.4783 8.97388 90.4291 8.03455 90.4291 6.34265V5.59009C90.4291 4.00256 91.4948 2.96985 93.0164 2.96985ZM93.0219 3.95312C92.1539 3.95312 91.6595 4.67822 91.6595 5.65051V6.29871C91.6595 7.271 92.121 7.9906 93.0219 7.9906C93.9117 7.9906 94.3677 7.27649 94.3677 6.29871V5.65051C94.3677 4.67822 93.8898 3.95312 93.0219 3.95312Z" fill="white"/>
<path d="M97.1637 8.875V3.06873H98.3612V4.11243H98.4216C98.5699 3.65649 98.9929 2.98083 100.168 2.98083C101.339 2.98083 102.124 3.62903 102.124 4.95288V8.875H100.905V5.30994C100.905 4.42554 100.443 4.01904 99.7565 4.01904C98.8556 4.01904 98.3832 4.71118 98.3832 5.65051V8.875H97.1637Z" fill="white"/>
<path d="M106.843 3.10718V1.65698H108.035V3.10718H109.337V4.06299H108.035V7.14465C108.035 7.77637 108.271 7.95215 108.925 7.95215C109.089 7.95215 109.309 7.94116 109.402 7.93018V8.86401C109.304 8.88049 108.897 8.91345 108.622 8.91345C107.211 8.91345 106.826 8.40808 106.826 7.24353V4.06299H105.942V3.10718H106.843Z" fill="white"/>
<path d="M110.875 8.875V0.981323H112.089V4.11243H112.149C112.275 3.70044 112.748 2.98083 113.912 2.98083C115.044 2.98083 115.851 3.63452 115.851 4.95837V8.875H114.637V5.31543C114.637 4.43103 114.149 4.01904 113.456 4.01904C112.583 4.01904 112.089 4.70569 112.089 5.65051V8.875H110.875Z" fill="white"/>
<path d="M119.944 8.97388C118.362 8.97388 117.379 8.00159 117.379 6.36462V5.5791C117.379 3.93115 118.455 2.96985 119.872 2.96985C121.328 2.96985 122.355 3.98059 122.355 5.5791V6.26025H118.587V6.5459C118.587 7.38086 119.081 7.99609 119.938 7.99609C120.576 7.99609 121.015 7.69397 121.097 7.33142H122.289C122.218 8.00159 121.509 8.97388 119.944 8.97388ZM118.587 5.46375H121.163V5.38684C121.163 4.51343 120.652 3.93115 119.878 3.93115C119.103 3.93115 118.587 4.51343 118.587 5.38684V5.46375Z" fill="white"/>
<path d="M38.0078 28.875H35.47L40.6335 13.8787H43.4241L48.5767 28.875H45.9399L44.6106 24.7222H39.3481L38.0078 28.875ZM42.0398 16.4714H41.9409L39.9084 22.8105H44.0503L42.0398 16.4714Z" fill="white"/>
<path d="M55.5807 29.0398C54.0756 29.0398 52.933 28.3257 52.3178 27.26H52.2299V32.7312H49.7909V17.2625H52.164V18.9653H52.2519C52.8891 17.8557 54.0756 17.1086 55.6356 17.1086C58.2394 17.1086 60.0961 19.0752 60.0961 22.5469V23.5796C60.0961 27.0293 58.2614 29.0398 55.5807 29.0398ZM55.0204 27.0293C56.5695 27.0293 57.6242 25.7878 57.6242 23.4478V22.6348C57.6242 20.3826 56.6354 19.0972 54.9765 19.0972C53.2736 19.0972 52.2079 20.4814 52.2079 22.6238V23.4478C52.2079 25.645 53.2846 27.0293 55.0204 27.0293Z" fill="white"/>
<path d="M67.979 29.0398C66.4739 29.0398 65.3313 28.3257 64.7161 27.26H64.6282V32.7312H62.1893V17.2625H64.5623V18.9653H64.6502C65.2874 17.8557 66.4739 17.1086 68.034 17.1086C70.6377 17.1086 72.4944 19.0752 72.4944 22.5469V23.5796C72.4944 27.0293 70.6597 29.0398 67.979 29.0398ZM67.4187 27.0293C68.9678 27.0293 70.0225 25.7878 70.0225 23.4478V22.6348C70.0225 20.3826 69.0337 19.0972 67.3748 19.0972C65.6719 19.0972 64.6062 20.4814 64.6062 22.6238V23.4478C64.6062 25.645 65.6829 27.0293 67.4187 27.0293Z" fill="white"/>
<path d="M77.5487 24.7112H79.9876C80.0975 26.0076 81.2401 27.1172 83.3604 27.1172C85.305 27.1172 86.4586 26.2053 86.4586 24.7881C86.4586 23.6455 85.6895 23.0303 84.0855 22.6458L81.6246 22.0305C79.691 21.5801 77.9552 20.4265 77.9552 17.9875C77.9552 15.1201 80.4601 13.5491 83.3714 13.5491C86.2828 13.5491 88.7108 15.1201 88.7657 17.9216H86.3707C86.2608 16.6472 85.2831 15.5925 83.3385 15.5925C81.6246 15.5925 80.4601 16.4055 80.4601 17.8008C80.4601 18.7786 81.1412 19.4817 82.5365 19.8003L84.9864 20.4045C87.2386 20.9539 88.9525 22.0195 88.9525 24.5684C88.9525 27.5127 86.5685 29.1716 83.1737 29.1716C78.9989 29.1716 77.6036 26.7327 77.5487 24.7112Z" fill="white"/>
<path d="M91.9246 17.2625V14.439H94.3196V17.2625H96.5828V19.218H94.3196V25.4143C94.3196 26.6777 94.792 27.0293 96.0994 27.0293C96.3081 27.0293 96.5059 27.0293 96.6487 27.0073V28.875C96.4509 28.908 95.9895 28.9519 95.4951 28.9519C92.6716 28.9519 91.8916 27.9412 91.8916 25.6121V19.218H90.2876V17.2625H91.9246Z" fill="white"/>
<path d="M103.169 17.0647C106.509 17.0647 108.322 19.4158 108.322 22.5798V23.5137C108.322 26.7876 106.52 29.0728 103.169 29.0728C99.8185 29.0728 97.9948 26.7876 97.9948 23.5137V22.5798C97.9948 19.4268 99.8295 17.0647 103.169 17.0647ZM103.169 19.0203C101.357 19.0203 100.456 20.5034 100.456 22.6128V23.5027C100.456 25.5791 101.346 27.1062 103.169 27.1062C104.993 27.1062 105.872 25.5901 105.872 23.5027V22.6128C105.872 20.4924 104.982 19.0203 103.169 19.0203Z" fill="white"/>
<path d="M110.382 28.875V17.2625H112.821V18.7896H112.909C113.206 18.0645 114.074 17.0977 115.689 17.0977C116.007 17.0977 116.282 17.1196 116.512 17.1636V19.3169C116.304 19.262 115.875 19.229 115.469 19.229C113.513 19.229 112.854 20.4375 112.854 21.9976V28.875H110.382Z" fill="white"/>
<path d="M122.429 29.0728C119.32 29.0728 117.342 27.0183 117.342 23.5796V22.4041C117.342 19.1631 119.276 17.0647 122.33 17.0647C125.428 17.0647 127.296 19.24 127.296 22.5139V23.6235H119.748V23.8982C119.748 25.8538 120.803 27.1501 122.462 27.1501C123.703 27.1501 124.549 26.5349 124.846 25.5352H127.164C126.812 27.4138 125.296 29.0728 122.429 29.0728ZM119.748 21.9207H124.912V21.8987C124.912 20.2507 123.89 18.9543 122.341 18.9543C120.77 18.9543 119.748 20.2507 119.748 21.8987V21.9207Z" fill="white"/>
</svg>
