<svg width="128" height="35" viewBox="0 0 128 35" fill="none" xmlns="http://www.w3.org/2000/svg">
<path d="M12.5063 15.2271L0.362245 28.4074C0.363385 28.4097 0.363385 28.4132 0.364526 28.4156C0.737503 29.8467 2.01498 30.9 3.53199 30.9C4.13879 30.9 4.70795 30.732 5.19613 30.4381L5.23491 30.4148L18.9039 22.3491L12.5063 15.2271Z" fill="#EA4335"/>
<path d="M24.7916 12.9827L24.7802 12.9746L18.8787 9.47654L12.2301 15.5267L18.9027 22.3478L24.7722 18.8847C25.8011 18.3155 26.5002 17.2063 26.5002 15.9279C26.5002 14.6565 25.8113 13.5531 24.7916 12.9827Z" fill="#FBBC04"/>
<path d="M0.362023 3.39165C0.289025 3.66692 0.250244 3.95618 0.250244 4.25478V27.5454C0.250244 27.844 0.288105 28.1333 0.362245 28.4074L12.9235 15.5642L0.362023 3.39165Z" fill="#4285F4"/>
<path d="M12.596 15.8999L18.8807 9.4742L5.22765 1.37939C4.73148 1.07496 4.15206 0.900001 3.53271 0.900001C2.0157 0.900001 0.735945 1.95559 0.362967 3.38793C0.362967 3.3891 0.362023 3.39048 0.362023 3.39165L12.596 15.8999Z" fill="#34A853"/>
<path d="M44.7627 5.5375C44.7627 6.7875 44.3919 7.78333 43.6502 8.525C42.8169 9.40833 41.7211 9.85 40.3627 9.85C39.0627 9.85 37.9627 9.4 37.0627 8.5C36.1627 7.6 35.7127 6.49167 35.7127 5.175C35.7127 3.85833 36.1627 2.75 37.0627 1.85C37.9627 0.95 39.0627 0.5 40.3627 0.5C41.0211 0.5 41.6419 0.616667 42.2252 0.85C42.8086 1.08333 43.2877 1.4125 43.6627 1.8375L42.8377 2.6625C42.5627 2.32917 42.2044 2.07083 41.7627 1.8875C41.3294 1.69583 40.8627 1.6 40.3627 1.6C39.3877 1.6 38.5627 1.9375 37.8877 2.6125C37.2211 3.29583 36.8877 4.15 36.8877 5.175C36.8877 6.2 37.2211 7.05417 37.8877 7.7375C38.5627 8.4125 39.3877 8.75 40.3627 8.75C41.2544 8.75 41.9961 8.5 42.5877 8C43.1794 7.5 43.5211 6.8125 43.6127 5.9375H40.3627V4.8625H44.7002C44.7419 5.09583 44.7627 5.32083 44.7627 5.5375Z" fill="white"/>
<path d="M51.385 0.7V1.8H47.31V4.6375H50.985V5.7125H47.31V8.55H51.385V9.65H46.16V0.7H51.385Z" fill="white"/>
<path d="M55.9849 1.8V9.65H54.8349V1.8H52.3349V0.7H58.4849V1.8H55.9849Z" fill="white"/>
<path d="M63.582 9.65H62.432V0.7H63.582V9.65Z" fill="white"/>
<path d="M68.4361 1.8V9.65H67.2861V1.8H64.7861V0.7H70.9361V1.8H68.4361Z" fill="white"/>
<path d="M83.4015 5.175C83.4015 6.5 82.9598 7.60833 82.0765 8.5C81.1848 9.4 80.0932 9.85 78.8015 9.85C77.5015 9.85 76.4099 9.4 75.5265 8.5C74.6432 7.60833 74.2015 6.5 74.2015 5.175C74.2015 3.85 74.6432 2.74167 75.5265 1.85C76.4099 0.95 77.5015 0.5 78.8015 0.5C80.1015 0.5 81.1932 0.954167 82.0765 1.8625C82.9598 2.75417 83.4015 3.85833 83.4015 5.175ZM75.3765 5.175C75.3765 6.20833 75.7015 7.0625 76.3515 7.7375C77.0098 8.4125 77.8265 8.75 78.8015 8.75C79.7765 8.75 80.589 8.4125 81.239 7.7375C81.8973 7.07083 82.2265 6.21667 82.2265 5.175C82.2265 4.13333 81.8973 3.27917 81.239 2.6125C80.589 1.9375 79.7765 1.6 78.8015 1.6C77.8265 1.6 77.0098 1.9375 76.3515 2.6125C75.7015 3.2875 75.3765 4.14167 75.3765 5.175Z" fill="white"/>
<path d="M85.9086 9.65H84.7586V0.7H86.1586L90.5086 7.6625H90.5586L90.5086 5.9375V0.7H91.6586V9.65H90.4586L85.9086 2.35H85.8586L85.9086 4.075V9.65Z" fill="white"/>
<path d="M107.148 30.1621H109.184V16.3977H107.148V30.1621ZM125.486 21.3558L123.152 27.3235H123.082L120.66 21.3558H118.467L122.099 29.6963L120.03 34.3362H122.152L127.75 21.3558H125.486ZM113.94 28.5986C113.272 28.5986 112.343 28.2627 112.343 27.4292C112.343 26.3678 113.5 25.9604 114.501 25.9604C115.396 25.9604 115.818 26.1553 116.361 26.4207C116.203 27.6957 115.115 28.5986 113.94 28.5986ZM114.186 21.0552C112.711 21.0552 111.184 21.7103 110.553 23.1626L112.36 23.9234C112.746 23.1626 113.465 22.9138 114.22 22.9138C115.273 22.9138 116.344 23.5513 116.361 24.6854V24.8263C115.992 24.6138 115.204 24.2956 114.238 24.2956C112.29 24.2956 110.307 25.3757 110.307 27.394C110.307 29.2361 111.904 30.423 113.693 30.423C115.063 30.423 115.818 29.8031 116.291 29.0764H116.361V30.1389H118.326V24.8616C118.326 22.4183 116.519 21.0552 114.186 21.0552ZM101.603 23.0316H98.7071V18.3135H101.603C103.125 18.3135 103.989 19.5853 103.989 20.672C103.989 21.7389 103.125 23.0316 101.603 23.0316ZM101.551 16.3977H96.6721V30.1621H98.7071V24.9474H101.551C103.807 24.9474 106.025 23.298 106.025 20.672C106.025 18.046 103.807 16.3977 101.551 16.3977ZM74.9481 28.6008C73.5417 28.6008 72.3644 27.4127 72.3644 25.7809C72.3644 24.1315 73.5417 22.9248 74.9481 22.9248C76.3371 22.9248 77.426 24.1315 77.426 25.7809C77.426 27.4127 76.3371 28.6008 74.9481 28.6008ZM77.2864 22.1265H77.2155C76.7583 21.5771 75.8799 21.0805 74.7725 21.0805C72.4517 21.0805 70.3251 23.1373 70.3251 25.7809C70.3251 28.4059 72.4517 30.4461 74.7725 30.4461C75.8799 30.4461 76.7583 29.9496 77.2155 29.3814H77.2864V30.0564C77.2864 31.8478 76.3371 32.8057 74.8074 32.8057C73.5591 32.8057 72.7855 31.9007 72.4691 31.1376L70.6939 31.883C71.2034 33.125 72.5575 34.65 74.8074 34.65C77.198 34.65 79.2198 33.2307 79.2198 29.7723V21.3635H77.2864V22.1265ZM80.6263 30.1621H82.6656V16.3966H80.6263V30.1621ZM85.6705 25.6213C85.6181 23.8122 87.0595 22.8895 88.096 22.8895C88.9056 22.8895 89.5908 23.2969 89.8189 23.8827L85.6705 25.6213ZM91.9989 24.06C91.6127 23.014 90.4343 21.0805 88.0262 21.0805C85.6356 21.0805 83.6497 22.9776 83.6497 25.7633C83.6497 28.3883 85.6181 30.4461 88.2542 30.4461C90.3819 30.4461 91.6127 29.1337 92.1222 28.3706L90.5401 27.3059C90.0131 28.0866 89.2919 28.6008 88.2542 28.6008C87.2177 28.6008 86.479 28.1218 86.0043 27.1826L92.2095 24.5918L91.9989 24.06ZM42.5629 22.5174V24.5037H47.2732C47.1324 25.6213 46.7636 26.4372 46.2017 27.0042C45.5154 27.6968 44.4429 28.4598 42.5629 28.4598C39.6616 28.4598 37.3943 26.1002 37.3943 23.1736C37.3943 20.2459 39.6616 17.8874 42.5629 17.8874C44.1275 17.8874 45.2699 18.5084 46.1133 19.3067L47.5023 17.905C46.3239 16.7698 44.7604 15.9 42.5629 15.9C38.5901 15.9 35.2502 19.1647 35.2502 23.1736C35.2502 27.1826 38.5901 30.4461 42.5629 30.4461C44.7069 30.4461 46.3239 29.736 47.5896 28.4059C48.8913 27.0934 49.295 25.2491 49.295 23.7583C49.295 23.2969 49.2601 22.8719 49.1892 22.5174H42.5629ZM54.6513 28.6008C53.2448 28.6008 52.0315 27.4303 52.0315 25.7633C52.0315 24.0776 53.2448 22.9248 54.6513 22.9248C56.0566 22.9248 57.27 24.0776 57.27 25.7633C57.27 27.4303 56.0566 28.6008 54.6513 28.6008ZM54.6513 21.0805C52.0839 21.0805 49.9922 23.0492 49.9922 25.7633C49.9922 28.4598 52.0839 30.4461 54.6513 30.4461C57.2176 30.4461 59.3092 28.4598 59.3092 25.7633C59.3092 23.0492 57.2176 21.0805 54.6513 21.0805ZM64.8128 28.6008C63.4064 28.6008 62.193 27.4303 62.193 25.7633C62.193 24.0776 63.4064 22.9248 64.8128 22.9248C66.2192 22.9248 67.4315 24.0776 67.4315 25.7633C67.4315 27.4303 66.2192 28.6008 64.8128 28.6008ZM64.8128 21.0805C62.2465 21.0805 60.1548 23.0492 60.1548 25.7633C60.1548 28.4598 62.2465 30.4461 64.8128 30.4461C67.3791 30.4461 69.4707 28.4598 69.4707 25.7633C69.4707 23.0492 67.3791 21.0805 64.8128 21.0805Z" fill="white"/>
</svg>
