<svg width="48" height="48" viewBox="0 0 48 48" fill="none" xmlns="http://www.w3.org/2000/svg">
<g clip-path="url(#clip0_2410_958)">
<path d="M47.5221 14.4001C47.5221 14.4001 47.0534 11.0907 45.6096 9.6376C43.7815 7.7251 41.7377 7.71572 40.8002 7.60322C34.0877 7.11572 24.0096 7.11572 24.0096 7.11572H23.9909C23.9909 7.11572 13.9127 7.11572 7.20024 7.60322C6.26274 7.71572 4.21899 7.7251 2.39087 9.6376C0.947119 11.0907 0.487744 14.4001 0.487744 14.4001C0.487744 14.4001 0.000244141 18.2907 0.000244141 22.172V25.8095C0.000244141 29.6907 0.478369 33.5813 0.478369 33.5813C0.478369 33.5813 0.947119 36.8907 2.38149 38.3438C4.20962 40.2563 6.60962 40.1907 7.67837 40.397C11.5221 40.7626 24.0002 40.8751 24.0002 40.8751C24.0002 40.8751 34.0877 40.8563 40.8002 40.3782C41.7377 40.2657 43.7815 40.2563 45.6096 38.3438C47.0534 36.8907 47.5221 33.5813 47.5221 33.5813C47.5221 33.5813 48.0002 29.7001 48.0002 25.8095V22.172C48.0002 18.2907 47.5221 14.4001 47.5221 14.4001ZM19.0409 30.2251V16.7345L32.0065 23.5032L19.0409 30.2251Z" fill="#2C2C2C"/>
</g>
<defs>
<clipPath id="clip0_2410_958">
<rect width="48" height="48" fill="white" transform="translate(0.000244141)"/>
</clipPath>
</defs>
</svg>
