<svg width="48" height="48" viewBox="0 0 48 48" fill="none" xmlns="http://www.w3.org/2000/svg">
<g clip-path="url(#clip0_2410_959)">
<path d="M24.0002 4.32187C30.4127 4.32187 31.1721 4.35 33.694 4.4625C36.0377 4.56562 37.3034 4.95938 38.1471 5.2875C39.2627 5.71875 40.069 6.24375 40.9034 7.07812C41.7471 7.92188 42.2627 8.71875 42.694 9.83438C43.0221 10.6781 43.4159 11.9531 43.519 14.2875C43.6315 16.8187 43.6596 17.5781 43.6596 23.9813C43.6596 30.3938 43.6315 31.1531 43.519 33.675C43.4159 36.0188 43.0221 37.2844 42.694 38.1281C42.2627 39.2438 41.7377 40.05 40.9034 40.8844C40.0596 41.7281 39.2627 42.2438 38.1471 42.675C37.3034 43.0031 36.0284 43.3969 33.694 43.5C31.1627 43.6125 30.4034 43.6406 24.0002 43.6406C17.5877 43.6406 16.8284 43.6125 14.3065 43.5C11.9627 43.3969 10.6971 43.0031 9.85337 42.675C8.73774 42.2438 7.93149 41.7188 7.09712 40.8844C6.25337 40.0406 5.73774 39.2438 5.30649 38.1281C4.97837 37.2844 4.58462 36.0094 4.48149 33.675C4.36899 31.1438 4.34087 30.3844 4.34087 23.9813C4.34087 17.5688 4.36899 16.8094 4.48149 14.2875C4.58462 11.9437 4.97837 10.6781 5.30649 9.83438C5.73774 8.71875 6.26274 7.9125 7.09712 7.07812C7.94087 6.23438 8.73774 5.71875 9.85337 5.2875C10.6971 4.95938 11.9721 4.56562 14.3065 4.4625C16.8284 4.35 17.5877 4.32187 24.0002 4.32187ZM24.0002 0C17.4846 0 16.669 0.028125 14.1096 0.140625C11.5596 0.253125 9.80649 0.665625 8.28774 1.25625C6.70337 1.875 5.36274 2.69062 4.03149 4.03125C2.69087 5.3625 1.87524 6.70313 1.25649 8.27813C0.665869 9.80625 0.253369 11.55 0.140869 14.1C0.0283691 16.6687 0.000244141 17.4844 0.000244141 24C0.000244141 30.5156 0.0283691 31.3312 0.140869 33.8906C0.253369 36.4406 0.665869 38.1938 1.25649 39.7125C1.87524 41.2969 2.69087 42.6375 4.03149 43.9688C5.36274 45.3 6.70337 46.125 8.27837 46.7344C9.80649 47.325 11.5502 47.7375 14.1002 47.85C16.6596 47.9625 17.4752 47.9906 23.9909 47.9906C30.5065 47.9906 31.3221 47.9625 33.8815 47.85C36.4315 47.7375 38.1846 47.325 39.7034 46.7344C41.2784 46.125 42.619 45.3 43.9502 43.9688C45.2815 42.6375 46.1065 41.2969 46.7159 39.7219C47.3065 38.1938 47.719 36.45 47.8315 33.9C47.944 31.3406 47.9721 30.525 47.9721 24.0094C47.9721 17.4938 47.944 16.6781 47.8315 14.1188C47.719 11.5688 47.3065 9.81563 46.7159 8.29688C46.1252 6.70312 45.3096 5.3625 43.969 4.03125C42.6377 2.7 41.2971 1.875 39.7221 1.26562C38.194 0.675 36.4502 0.2625 33.9002 0.15C31.3315 0.028125 30.5159 0 24.0002 0Z" fill="#2C2C2C"/>
<path d="M24.0002 11.6719C17.194 11.6719 11.6721 17.1938 11.6721 24C11.6721 30.8062 17.194 36.3281 24.0002 36.3281C30.8065 36.3281 36.3284 30.8062 36.3284 24C36.3284 17.1938 30.8065 11.6719 24.0002 11.6719ZM24.0002 31.9969C19.5846 31.9969 16.0034 28.4156 16.0034 24C16.0034 19.5844 19.5846 16.0031 24.0002 16.0031C28.4159 16.0031 31.9971 19.5844 31.9971 24C31.9971 28.4156 28.4159 31.9969 24.0002 31.9969Z" fill="#2C2C2C"/>
<path d="M39.694 11.1843C39.694 12.778 38.4002 14.0624 36.8159 14.0624C35.2221 14.0624 33.9377 12.7687 33.9377 11.1843C33.9377 9.59053 35.2315 8.30615 36.8159 8.30615C38.4002 8.30615 39.694 9.5999 39.694 11.1843Z" fill="#2C2C2C"/>
</g>
<defs>
<clipPath id="clip0_2410_959">
<rect width="48" height="48" fill="white" transform="translate(0.000244141)"/>
</clipPath>
</defs>
</svg>
