<svg width="48" height="48" viewBox="0 0 48 48" fill="none" xmlns="http://www.w3.org/2000/svg">
<g clip-path="url(#clip0_2410_957)">
<path d="M40.6343 8.31115C37.5749 6.90738 34.2942 5.87315 30.864 5.28081C30.8016 5.26937 30.7392 5.29794 30.707 5.35508C30.2851 6.10551 29.8177 7.08451 29.4904 7.854C25.8011 7.30166 22.1306 7.30166 18.5169 7.854C18.1895 7.06741 17.7052 6.10551 17.2814 5.35508C17.2492 5.29985 17.1868 5.27128 17.1243 5.28081C13.6961 5.87126 10.4154 6.90549 7.35411 8.31115C7.32761 8.32257 7.3049 8.34164 7.28982 8.36638C1.06703 17.6631 -0.637656 26.7313 0.198604 35.6871C0.202388 35.7309 0.226984 35.7728 0.26104 35.7995C4.36666 38.8145 8.34366 40.645 12.2468 41.8582C12.3093 41.8773 12.3755 41.8544 12.4152 41.803C13.3385 40.5421 14.1615 39.2127 14.8672 37.8146C14.9088 37.7327 14.8691 37.6356 14.784 37.6032C13.4785 37.108 12.2354 36.5042 11.0397 35.8185C10.9451 35.7633 10.9376 35.628 11.0246 35.5632C11.2762 35.3747 11.5279 35.1785 11.7682 34.9804C11.8116 34.9443 11.8722 34.9366 11.9233 34.9595C19.7788 38.546 28.2833 38.546 36.0462 34.9595C36.0973 34.9347 36.1578 34.9424 36.2032 34.9785C36.4435 35.1766 36.6952 35.3747 36.9487 35.5632C37.0357 35.628 37.03 35.7633 36.9354 35.8185C35.7397 36.5175 34.4966 37.108 33.1893 37.6013C33.1042 37.6337 33.0663 37.7327 33.1079 37.8146C33.8288 39.2107 34.6518 40.5402 35.558 41.8011C35.5959 41.8544 35.664 41.8773 35.7264 41.8582C39.6485 40.645 43.6255 38.8145 47.7311 35.7995C47.7671 35.7728 47.7898 35.7328 47.7936 35.689C48.7944 25.3351 46.1172 16.3413 40.6967 8.36827C40.6834 8.34164 40.6608 8.32257 40.6343 8.31115ZM16.0403 30.234C13.6752 30.234 11.7265 28.0627 11.7265 25.3961C11.7265 22.7295 13.6375 20.5582 16.0403 20.5582C18.462 20.5582 20.3919 22.7486 20.354 25.3961C20.354 28.0627 18.4431 30.234 16.0403 30.234ZM31.9897 30.234C29.6248 30.234 27.676 28.0627 27.676 25.3961C27.676 22.7295 29.5869 20.5582 31.9897 20.5582C34.4115 20.5582 36.3413 22.7486 36.3035 25.3961C36.3035 28.0627 34.4115 30.234 31.9897 30.234Z" fill="#2C2C2C"/>
</g>
<defs>
<clipPath id="clip0_2410_957">
<rect width="48" height="48" fill="white" transform="translate(0.000244141)"/>
</clipPath>
</defs>
</svg>
