<svg width="90" height="90" viewBox="0 0 90 90" fill="none" xmlns="http://www.w3.org/2000/svg">
<path d="M82.8845 55.3332L79.7565 43.5593L81.9569 43.627L80.7585 38.4408L31.0023 35.9357C32.9522 34.5004 34.0964 32.2255 34.1235 29.8288L35.613 33.7421C36.0124 34.7983 37.204 35.3332 38.2602 34.9337C39.3164 34.5342 39.8513 33.3426 39.4518 32.2864L37.4342 26.9852L38.8628 30.7428C48.5446 27.0664 50.9278 30.499 50.9278 30.499L50.982 30.6412C51.4424 31.8464 52.7897 32.4489 53.9948 31.9953C55.2 31.5349 55.8025 30.1876 55.3489 28.9824L54.4688 26.6602C56.1411 31.061 61.0632 33.2749 65.464 31.6026L65.7213 32.2864C65.9786 32.9703 66.7436 33.3088 67.4275 33.0515C68.1113 32.7942 68.4498 32.0292 68.1925 31.3453L56.5947 0.851098C56.3374 0.167279 55.5723 -0.171245 54.8885 0.0860336C54.2047 0.343312 53.8662 1.10838 54.1235 1.79219L54.3807 2.47601C49.9799 4.14832 47.766 9.07046 49.4383 13.4713L51.9434 20.0657L48.5581 11.149C48.0977 9.94385 46.7504 9.34128 45.5453 9.7949C44.3401 10.2553 43.7375 11.6026 44.1912 12.8078L44.2453 12.9499C44.2453 12.9499 44.7464 17.1003 35.0646 20.7834L34.4755 19.2397C34.0761 18.1835 32.8845 17.6487 31.8283 18.0481C30.7721 18.4476 30.2372 19.6392 30.6367 20.6954L32.1262 24.6087C30.0679 22.3338 26.7504 21.4198 23.7037 22.5776C19.7362 24.0874 17.7457 28.5221 19.2487 32.4896C19.6956 33.6609 20.3997 34.6561 21.2731 35.4483L7.6712 34.7644L0.000244141 41.1693L1.18508 82.7198L8.98467 82.6724C9.60756 79.0637 13.1621 76.5045 17.1905 76.8971C20.6164 77.2357 23.311 79.6189 23.9677 82.5844L62.397 82.3609C63.1079 80.9391 64.3063 79.7881 65.8161 79.0908C67.4545 78.3393 69.269 78.2106 70.9278 78.7319C72.6204 79.2668 73.9407 80.411 74.6516 81.9547C74.699 82.063 74.7396 82.1713 74.7802 82.2797L86.8791 82.212L90.0002 59.4902L82.8845 55.3264V55.3332ZM71.1715 53.8707C71.3611 53.6202 71.6116 53.4307 71.9231 53.2952C72.2345 53.1598 72.573 53.1057 72.9386 53.126C73.3246 53.1463 73.6698 53.2411 73.961 53.4103C74.2521 53.5796 74.4823 53.7963 74.6516 54.0603C74.8208 54.3311 74.8953 54.6223 74.8818 54.9472C74.8615 55.3535 74.7531 55.6852 74.5568 55.929C74.3604 56.1727 74.1099 56.342 73.7985 56.4367C73.4938 56.5315 73.1417 56.5722 72.7558 56.5518C72.3902 56.5315 72.0585 56.4367 71.7673 56.2675C71.4762 56.0982 71.246 55.8748 71.0835 55.604C70.921 55.3332 70.8466 55.0488 70.8601 54.7306C70.8804 54.4056 70.982 54.1212 71.1715 53.8707ZM17.1092 50.8172C16.9468 51.0542 16.7775 51.2235 16.5947 51.325C16.4187 51.4266 16.1749 51.4537 15.877 51.4198C15.5791 51.3589 15.3557 51.2438 15.2067 51.0678C15.0578 50.8917 14.9359 50.648 14.8344 50.3433C14.8208 50.147 14.8073 49.9777 14.7802 49.822C14.7531 49.6663 14.7057 49.5173 14.6245 49.3616C14.5432 49.2059 14.4349 49.0772 14.2995 48.9621C14.1573 48.8538 13.9677 48.7793 13.7376 48.7455C13.4261 48.7184 13.135 48.7793 12.8642 48.9283C12.5933 49.0772 12.3428 49.2803 12.1262 49.5376C11.9095 49.7949 11.7199 50.0725 11.5575 50.3704C11.395 50.6683 11.2731 50.9594 11.1783 51.2506C11.0903 51.5349 11.0294 51.7854 11.009 51.9885C10.9955 52.1917 11.009 52.3948 11.0497 52.5979C11.0903 52.801 11.1445 52.9973 11.2189 53.1801C11.2934 53.3697 11.3882 53.539 11.5101 53.6947C11.6252 53.8504 11.7606 53.9858 11.9163 54.0942C12.072 54.2025 12.2413 54.2905 12.4241 54.3582C12.6069 54.3988 12.8168 54.3853 13.047 54.3108C13.2839 54.2363 13.5074 54.128 13.7308 53.9858C13.9474 53.8437 14.1032 53.6879 14.1979 53.5322C14.3469 53.3426 14.5026 53.2005 14.6583 53.1057C14.8141 53.0041 15.0104 52.95 15.2541 52.9432C15.4911 52.9364 15.7687 53.0109 16.0801 53.1801C16.351 53.3156 16.5541 53.4645 16.6827 53.627C16.8113 53.7895 16.8791 53.952 16.8994 54.1145C16.9197 54.277 16.9061 54.4259 16.8655 54.5478C16.8249 54.6764 16.764 54.8186 16.6827 54.9743C16.4593 55.2993 16.2291 55.5769 15.9989 55.8071C15.7687 56.0373 15.464 56.2472 15.0916 56.4367C14.7193 56.6263 14.2724 56.755 13.7511 56.8159C13.2298 56.8768 12.6137 56.8294 11.9163 56.6602C11.246 56.4977 10.6773 56.2472 10.2034 55.9222C9.7362 55.5972 9.35705 55.2113 9.05915 54.7644C8.76802 54.3244 8.54459 53.8572 8.40241 53.3765C8.26023 52.8958 8.18576 52.4151 8.18576 51.9479C8.18576 51.4808 8.23315 51.0407 8.32794 50.6344C8.4498 50.1673 8.63938 49.673 8.88989 49.1517C9.14716 48.6304 9.47892 48.1497 9.89869 47.6961C10.3185 47.2492 10.8195 46.8904 11.4153 46.6263C12.0043 46.3623 12.7084 46.2472 13.5141 46.2946C14.225 46.3352 14.8411 46.5045 15.376 46.8159C15.9041 47.1273 16.3239 47.5065 16.6421 47.9669C16.9603 48.4273 17.1566 48.908 17.2447 49.409C17.3327 49.91 17.2853 50.3772 17.1092 50.8105V50.8172ZM20.8127 56.1524C20.7721 56.3555 20.7044 56.5248 20.6231 56.6602C20.5419 56.7956 20.4065 56.9107 20.2237 57.0055C20.0409 57.1003 19.7904 57.1273 19.4654 57.1003C19.1607 57.0867 18.9237 57.0122 18.7409 56.8768C18.5581 56.7414 18.4227 56.5925 18.3347 56.4232C18.2467 56.2539 18.179 56.0508 18.1248 55.7936C18.1045 55.3264 18.0977 54.8254 18.0977 54.2973C18.0977 53.7624 18.1113 53.214 18.1384 52.6385C18.1654 52.0698 18.1993 51.4943 18.2399 50.912C18.2805 50.3298 18.3347 49.7611 18.3956 49.1923C18.4566 48.6304 18.5243 48.0887 18.5988 47.5742C18.6529 47.3711 18.7206 47.2086 18.8019 47.0799C18.8831 46.9581 19.0118 46.8497 19.181 46.7617C19.3503 46.6737 19.5872 46.6399 19.8784 46.6534C20.2034 46.6805 20.4539 46.755 20.6434 46.8633C20.833 46.9784 20.9684 47.1138 21.0564 47.2831C21.1445 47.4523 21.2054 47.6148 21.2325 47.7705C21.2596 47.9263 21.2731 48.1158 21.2596 48.3325C21.1918 48.7726 21.1377 49.2397 21.0903 49.7407C21.0429 50.2418 21.0023 50.7563 20.9684 51.298C20.9684 51.3453 20.9684 51.3995 20.9617 51.4469L24.5568 51.3792C24.5568 51.3386 24.5568 51.2912 24.5635 51.2506C24.6109 50.6683 24.6651 50.0996 24.726 49.5376C24.787 48.9757 24.8547 48.434 24.9224 47.9195C24.963 47.7164 25.0307 47.5539 25.112 47.4252C25.1932 47.3034 25.3218 47.195 25.4911 47.107C25.6604 47.019 25.8973 46.9852 26.1885 46.9987C26.5134 47.0258 26.764 47.1003 26.9468 47.2086C27.1296 47.3237 27.265 47.4591 27.3598 47.6284C27.4545 47.7976 27.5155 47.9601 27.5426 48.1158C27.5696 48.2715 27.5832 48.4611 27.5696 48.6778C27.5019 49.1179 27.4478 49.585 27.4004 50.086C27.353 50.5871 27.3124 51.1016 27.2785 51.6432C27.2447 52.1849 27.2176 52.7265 27.1905 53.2817C27.1634 53.8369 27.1499 54.3853 27.1431 54.9337C27.1363 55.4753 27.1296 55.9967 27.1228 56.4977C27.0822 56.7008 27.0145 56.8701 26.9332 57.0055C26.852 57.1409 26.7166 57.256 26.5338 57.3508C26.351 57.4456 26.1004 57.4794 25.789 57.4455C25.4776 57.432 25.2271 57.3508 25.051 57.2221C24.8682 57.0867 24.7328 56.9378 24.6448 56.7685C24.5568 56.5992 24.4891 56.3961 24.4485 56.1456C24.4214 55.6785 24.4078 55.1774 24.4146 54.6426C24.4146 54.4056 24.4281 54.1551 24.4349 53.9114L20.8466 53.9384C20.8466 54.1551 20.833 54.3785 20.8262 54.5884C20.8195 55.13 20.8127 55.6514 20.8059 56.1524H20.8127ZM28.4498 68.583C28.3956 68.7726 28.3212 68.9283 28.2196 69.0434C28.1248 69.1585 27.9962 69.2668 27.8405 69.3616C27.3056 69.4293 26.8181 69.497 26.3713 69.5579C25.9244 69.6189 25.4911 69.673 25.0781 69.7069C24.6583 69.7475 24.2453 69.7678 23.8256 69.7678C23.4126 69.7678 22.9589 69.7543 22.4782 69.7204C22.1194 69.7204 21.835 69.6663 21.6116 69.5512C21.3882 69.4361 21.2257 69.2939 21.1174 69.1179C21.009 68.9418 20.9346 68.7658 20.8939 68.583C20.8533 68.4002 20.833 68.2377 20.833 68.0955C20.833 67.4726 20.833 66.9039 20.8398 66.4029C20.8398 65.9019 20.8533 65.4212 20.8601 64.9608C20.8669 64.5004 20.8872 64.04 20.9143 63.5728C20.9413 63.1057 20.9887 62.5979 21.0429 62.0563C21.0971 61.5146 21.1715 60.8985 21.2596 60.2147C21.3069 59.9913 21.3747 59.8084 21.4694 59.6663C21.5642 59.5241 21.7064 59.409 21.896 59.3142C22.0856 59.2194 22.3496 59.1991 22.6949 59.233C23.0063 59.2736 23.2501 59.3616 23.4261 59.5038C23.6021 59.646 23.724 59.8017 23.7985 59.9642C23.873 60.1267 23.9204 60.3298 23.9542 60.5803C23.8594 61.9005 23.7714 63.1192 23.6834 64.2363C23.5954 65.3467 23.548 66.3894 23.5412 67.3643C23.961 67.3305 24.3401 67.3034 24.6786 67.2695C25.0172 67.2357 25.3489 67.195 25.6807 67.1477C26.0124 67.0935 26.378 67.0393 26.7843 66.9852C26.9806 66.9852 27.1499 66.9987 27.2988 67.019C27.4478 67.0461 27.6035 67.0867 27.7592 67.1409C27.9149 67.195 28.0571 67.2831 28.1858 67.3982C28.3076 67.5133 28.3889 67.669 28.4363 67.8653C28.4972 68.1497 28.4972 68.3867 28.4498 68.5762V68.583ZM32.7423 61.3792C32.6746 61.8193 32.6204 62.2864 32.5663 62.7875C32.5189 63.2885 32.4782 63.803 32.4444 64.3447C32.4105 64.8795 32.3835 65.4279 32.3564 65.9831C32.3293 66.5383 32.3158 67.0867 32.309 67.6351C32.3022 68.1835 32.2954 68.6981 32.2887 69.1991C32.248 69.4022 32.1803 69.5715 32.0991 69.7069C32.0178 69.8423 31.8824 69.9574 31.6996 70.0522C31.5168 70.147 31.2663 70.1808 30.9413 70.147C30.6367 70.1334 30.3997 70.059 30.2169 69.9235C30.0341 69.7881 29.8987 69.6392 29.8107 69.4699C29.7227 69.3007 29.655 69.0975 29.6008 68.8403C29.5805 68.3731 29.5737 67.8721 29.5737 67.344C29.5737 66.8091 29.5872 66.2607 29.6143 65.6852C29.6414 65.1165 29.6753 64.541 29.7159 63.9588C29.7565 63.3765 29.8107 62.8078 29.8716 62.2391C29.9325 61.6771 30.0002 61.1355 30.0679 60.6209C30.1221 60.4178 30.1898 60.2553 30.2711 60.1334C30.3523 60.0048 30.4809 59.9032 30.6502 59.8152C30.8195 59.7272 31.0564 59.6934 31.3476 59.7069C31.6726 59.734 31.9231 59.8084 32.1126 59.9168C32.3022 60.0319 32.4376 60.1673 32.5256 60.3365C32.6137 60.5058 32.6746 60.6683 32.7017 60.824C32.7287 60.9797 32.7423 61.1693 32.7287 61.386L32.7423 61.3792ZM31.5236 57.757C31.1038 57.757 30.6299 57.7367 30.1018 57.6961C29.6956 57.6284 29.3774 57.5268 29.1539 57.3778C28.9305 57.2289 28.7748 57.0664 28.68 56.8904C28.5852 56.7143 28.5311 56.5383 28.5107 56.369C28.4904 56.1998 28.4837 56.0711 28.4769 55.9899C28.4837 55.2248 28.4904 54.5275 28.4972 53.9046C28.4972 53.2817 28.5243 52.6724 28.5514 52.0833C28.5852 51.4943 28.6326 50.8714 28.7003 50.2147C28.768 49.5512 28.8628 48.7996 28.9847 47.9533C29.0253 47.8044 29.1404 47.6419 29.33 47.4726C29.5195 47.2966 29.8107 47.2086 30.2101 47.195L34.7057 47.3575C34.9292 47.3778 35.1323 47.4117 35.3151 47.4523C35.4979 47.4929 35.6739 47.5674 35.8499 47.669C36.0192 47.7705 36.1682 47.9059 36.2833 48.0752C36.3983 48.2445 36.4525 48.4611 36.4322 48.7319C36.4322 48.9892 36.3713 49.1991 36.2562 49.3481C36.1411 49.497 36.0057 49.6053 35.8567 49.6663C35.7078 49.7272 35.5114 49.7678 35.2744 49.7881L31.5507 49.4293C31.4897 49.9777 31.4424 50.4516 31.4085 50.8579C31.4017 50.9459 31.395 51.0271 31.3882 51.1152L33.6631 51.149C33.8526 51.2032 34.0151 51.2573 34.1505 51.3183C34.286 51.3792 34.4146 51.4604 34.5432 51.5688C34.6719 51.6771 34.7802 51.8057 34.8682 51.9615C34.9562 52.1172 34.9969 52.3 34.9833 52.5031C34.9698 52.7739 34.9021 52.9838 34.7802 53.1328C34.6583 53.2817 34.5229 53.39 34.3672 53.451C34.2115 53.5119 34.0287 53.5525 33.812 53.5728L31.2528 53.5322C31.246 53.6879 31.2392 53.8437 31.2257 54.0061C31.2054 54.3853 31.1919 54.8389 31.1851 55.3535C31.5236 55.3196 31.8012 55.2925 32.0314 55.2722C32.2616 55.2519 32.4512 55.2384 32.6069 55.2248C32.7626 55.2113 32.9183 55.1978 33.0808 55.1774C33.2365 55.1571 33.4193 55.13 33.6292 55.103C33.8391 55.0691 34.0964 55.0285 34.4146 54.9811C34.6109 54.9946 34.7802 55.0149 34.9292 55.0488C35.0781 55.0827 35.2338 55.1368 35.3963 55.2113C35.5588 55.2858 35.7078 55.3873 35.8364 55.516C35.965 55.6446 36.0463 55.8139 36.0801 56.0102C36.1411 56.2946 36.1411 56.5248 36.0801 56.7076C36.0192 56.8904 35.9244 57.0258 35.8093 57.1138C35.6942 57.2018 35.5385 57.2831 35.3489 57.3508C34.8479 57.432 34.3875 57.5065 33.9745 57.5674C33.5615 57.6284 33.1553 57.6825 32.7626 57.7231C32.3699 57.7638 31.9569 57.7773 31.5371 57.7773L31.5236 57.757ZM42.4308 64.602C42.2684 64.8389 42.0923 65.0082 41.9163 65.1097C41.7403 65.2113 41.4965 65.2384 41.1986 65.1978C40.9007 65.1368 40.6773 65.0217 40.5283 64.8457C40.3794 64.6697 40.2575 64.4259 40.156 64.1212C40.1424 63.9249 40.1289 63.7556 40.1018 63.5999C40.0747 63.4442 40.0273 63.2952 39.9461 63.1395C39.8648 62.9838 39.7565 62.8484 39.6211 62.7401C39.4789 62.6317 39.2961 62.5573 39.0591 62.5234C38.7477 62.4963 38.4566 62.5573 38.1858 62.7062C37.9149 62.8552 37.6712 63.0583 37.4478 63.3156C37.2311 63.5728 37.0415 63.8504 36.8791 64.1483C36.7166 64.4462 36.5947 64.7374 36.4999 65.0285C36.4119 65.3129 36.351 65.5634 36.3306 65.7665C36.3171 65.9696 36.3306 66.1727 36.3713 66.3758C36.4119 66.5789 36.4661 66.7753 36.5405 66.9581C36.615 67.1477 36.7098 67.3169 36.8317 67.4726C36.9468 67.6284 37.0822 67.7638 37.2379 67.8721C37.3936 67.9804 37.5629 68.0684 37.7457 68.1361C37.9285 68.1768 38.1384 68.1632 38.3686 68.0887C38.6055 68.0143 38.829 67.9059 39.0524 67.7638C39.269 67.6216 39.4248 67.4659 39.5195 67.3101C39.6685 67.1273 39.8242 66.9784 39.9799 66.8836C40.1357 66.782 40.332 66.7279 40.5757 66.7211C40.8127 66.7143 41.0903 66.7888 41.4017 66.9581C41.6793 67.0935 41.8757 67.2424 42.0043 67.4049C42.1329 67.5674 42.2007 67.7299 42.221 67.8924C42.2413 68.0549 42.2277 68.2038 42.1871 68.3257C42.1465 68.4544 42.0856 68.5965 42.0043 68.7523C41.7809 69.0772 41.5507 69.3548 41.3205 69.585C41.0903 69.8152 40.7856 70.0251 40.4132 70.2147C40.0409 70.4043 39.594 70.5329 39.0727 70.5938C38.5514 70.6548 37.9352 70.6074 37.2379 70.4381C36.5676 70.2688 35.9989 70.0251 35.5317 69.7001C35.0646 69.3751 34.6786 68.9892 34.3875 68.5424C34.0896 68.1023 33.873 67.6351 33.7308 67.1544C33.5886 66.6737 33.5141 66.193 33.5141 65.7259C33.5141 65.2587 33.5615 64.8186 33.6563 64.4124C33.7782 63.9452 33.9677 63.451 34.2183 62.9296C34.4755 62.4083 34.8073 61.9276 35.2271 61.4808C35.6468 61.0339 36.1478 60.6751 36.7436 60.411C37.3327 60.147 38.0368 60.0319 38.8425 60.0793C39.5534 60.1199 40.1695 60.2892 40.7044 60.6006C41.2325 60.912 41.6522 61.2912 41.9705 61.7516C42.2819 62.212 42.485 62.6927 42.573 63.1937C42.661 63.6947 42.6137 64.1619 42.4444 64.5952L42.4308 64.602ZM41.8283 58.3257C41.2122 58.3122 40.6773 58.2648 40.2237 58.1835C39.7701 58.1023 39.3977 58.0007 39.0998 57.8856C38.8019 57.7705 38.5107 57.6351 38.2128 57.4659C38.0571 57.3575 37.9285 57.256 37.8337 57.1612C37.7389 57.0664 37.6509 56.9513 37.5696 56.8159C37.4884 56.6805 37.4478 56.5315 37.441 56.369C37.4342 56.2066 37.4816 56.0373 37.59 55.8613C37.7118 55.6649 37.8472 55.5295 38.003 55.455C38.1587 55.3806 38.3076 55.3467 38.443 55.3399C38.5852 55.3399 38.7477 55.3602 38.944 55.4144C39.3097 55.5769 39.6888 55.692 40.0747 55.7732C40.4606 55.8545 40.8195 55.8951 41.158 55.8951C41.4965 55.8951 41.7809 55.8613 42.0111 55.78C42.2413 55.6988 42.3767 55.5837 42.4038 55.4212C42.4173 55.3264 42.3767 55.2248 42.2819 55.1233C42.1871 55.0217 42.0382 54.9202 41.8554 54.8186C41.6658 54.717 41.4424 54.6087 41.1783 54.4936C40.9143 54.3785 40.6231 54.2431 40.3117 54.1009C40.1221 54.0061 39.9055 53.8707 39.6617 53.7015C39.418 53.5322 39.1742 53.3291 38.944 53.0854C38.7071 52.8484 38.504 52.5843 38.3415 52.2932C38.1722 52.0021 38.0571 51.6974 38.003 51.3657C37.9488 51.0407 37.9691 50.6954 38.0842 50.3365C38.1925 49.9777 38.4227 49.6121 38.768 49.2397C39.1133 48.8674 39.4789 48.583 39.8716 48.3731C40.2643 48.17 40.6638 48.021 41.07 47.9466C41.4762 47.8653 41.8621 47.8247 42.2277 47.8315C42.5933 47.8315 42.9183 47.8586 43.2027 47.9059C43.487 47.9533 43.7917 48.021 44.1235 48.1158C44.3266 48.1903 44.4958 48.2648 44.638 48.346C44.7802 48.4205 44.9224 48.5221 45.0578 48.6439C45.2 48.7658 45.3015 48.9147 45.3828 49.0908C45.4573 49.2668 45.4776 49.4767 45.4302 49.7272C45.376 49.9912 45.2677 50.1876 45.1255 50.3027C44.9766 50.4178 44.8276 50.4855 44.6583 50.5058C44.4958 50.5261 44.2927 50.5193 44.0422 50.4787C43.6631 50.3298 43.2704 50.2688 42.8777 50.2959C42.485 50.323 42.1262 50.4043 41.8012 50.5397C41.483 50.6751 41.2257 50.8308 41.0429 51.0001C40.8533 51.1761 40.7789 51.3318 40.8127 51.474C40.8466 51.6162 40.982 51.7583 41.2054 51.8938C41.4288 52.0292 41.7132 52.1781 42.0449 52.3338C42.3835 52.4896 42.7287 52.6656 43.0944 52.8619C43.46 53.0515 43.7917 53.2682 44.0964 53.5051C44.4011 53.7421 44.638 54.0129 44.8073 54.3108C45.0916 54.8254 45.2406 55.2858 45.2406 55.7123C45.2406 56.1321 45.1458 56.5112 44.9427 56.8362C44.7396 57.168 44.4755 57.4388 44.137 57.6622C43.7985 57.8789 43.4329 58.0549 43.0334 58.17C42.634 58.2919 42.2345 58.346 41.835 58.3325L41.8283 58.3257ZM46.5812 62.1172C46.5135 62.5573 46.4593 63.0244 46.4051 63.5254C46.3577 64.0265 46.3171 64.541 46.2833 65.0826C46.2494 65.6243 46.2223 66.1659 46.1952 66.7211C46.1682 67.2763 46.1546 67.8247 46.1478 68.3731C46.1411 68.9215 46.1343 69.4361 46.1275 69.9371C46.0869 70.1402 46.0192 70.3095 45.938 70.4449C45.8567 70.5803 45.7213 70.6954 45.5385 70.7902C45.3557 70.885 45.1052 70.9188 44.7802 70.885C44.4755 70.8714 44.2386 70.7969 44.0558 70.6615C43.873 70.5261 43.7376 70.3772 43.6495 70.2079C43.5615 70.0386 43.4938 69.8355 43.4397 69.5783C43.4193 69.1111 43.4126 68.6101 43.4126 68.082C43.4126 67.5471 43.4261 66.9987 43.4532 66.4232C43.4803 65.8545 43.5141 65.279 43.5547 64.6967C43.5954 64.1145 43.6495 63.5458 43.7105 62.977C43.7714 62.4151 43.8391 61.8734 43.9136 61.3589C43.9677 61.1558 44.0355 60.9933 44.1167 60.8646C44.1979 60.7428 44.3266 60.6344 44.4958 60.5464C44.6651 60.4584 44.9021 60.4246 45.1932 60.4381C45.5182 60.4652 45.7687 60.5397 45.9583 60.648C46.1478 60.7631 46.2832 60.8985 46.3713 61.0678C46.4593 61.237 46.5202 61.3995 46.5473 61.5552C46.5744 61.711 46.5879 61.9005 46.5744 62.1172H46.5812ZM46.8791 57.6487C46.7843 57.5539 46.6963 57.4388 46.615 57.3034C46.5338 57.168 46.4931 57.019 46.4864 56.8565C46.4796 56.694 46.527 56.5248 46.6353 56.3487C46.7504 56.1524 46.8926 56.017 47.0483 55.9425C47.204 55.868 47.353 55.8342 47.4952 55.8274C47.6373 55.8274 47.7998 55.8477 47.9894 55.9019C48.3618 56.0644 48.7342 56.1795 49.1201 56.2607C49.506 56.342 49.8648 56.3826 50.2034 56.3826C50.5419 56.3826 50.8262 56.3487 51.0564 56.2675C51.2866 56.1862 51.4153 56.0711 51.4491 55.9087C51.4627 55.8139 51.422 55.7123 51.3273 55.6108C51.2325 55.5092 51.0903 55.4076 50.9007 55.3061C50.7111 55.2045 50.4877 55.0962 50.2237 54.9811C49.9596 54.866 49.6685 54.7306 49.3571 54.5884C49.1675 54.4936 48.9508 54.3582 48.7071 54.1889C48.4633 54.0197 48.2196 53.8166 47.9894 53.5728C47.7524 53.3359 47.5493 53.0718 47.3801 52.7807C47.2108 52.4896 47.0957 52.1849 47.0415 51.8531C46.9806 51.5281 47.0077 51.1829 47.1228 50.824C47.2311 50.4652 47.4613 50.0996 47.8066 49.7272C48.1519 49.3548 48.5175 49.0705 48.9102 48.8606C49.3029 48.6575 49.7023 48.5153 50.1086 48.434C50.5148 48.3528 50.9007 48.3122 51.2663 48.3189C51.6319 48.3189 51.9569 48.346 52.2413 48.3934C52.5256 48.4408 52.8303 48.5085 53.1621 48.6033C53.3652 48.6778 53.5344 48.7523 53.6766 48.8335C53.8188 48.908 53.961 49.0095 54.0964 49.1314C54.2386 49.2533 54.3469 49.4022 54.4214 49.5783C54.4958 49.7543 54.5162 49.9642 54.4688 50.2147C54.4146 50.4787 54.3063 50.6751 54.1641 50.7902C54.0151 50.9053 53.8594 50.973 53.6969 50.9933C53.5344 51.0136 53.3313 51.0068 53.0808 50.9662C52.7017 50.8172 52.3158 50.7563 51.9163 50.7834C51.5168 50.8105 51.1648 50.8917 50.8398 51.0271C50.5216 51.1625 50.2643 51.3183 50.0747 51.4875C49.8851 51.6636 49.8107 51.8193 49.8445 51.9615C49.8784 52.1036 50.0138 52.2458 50.2372 52.3812C50.4606 52.5166 50.745 52.6656 51.0768 52.8213C51.4153 52.977 51.7606 53.1531 52.1262 53.3494C52.485 53.539 52.8235 53.7556 53.1282 53.9926C53.4329 54.2296 53.6698 54.5004 53.8391 54.7983C54.1235 55.3129 54.2724 55.78 54.2724 56.1998C54.2724 56.6196 54.1776 56.9987 53.9745 57.3237C53.7714 57.6554 53.5074 57.9263 53.1688 58.1497C52.8303 58.3663 52.4647 58.5424 52.0652 58.6575C51.6658 58.7793 51.2663 58.8335 50.8669 58.82C50.2508 58.8064 49.7159 58.759 49.2623 58.6778C48.8086 58.5965 48.4363 58.495 48.1384 58.3799C47.8405 58.2648 47.5493 58.1294 47.2514 57.9601C47.0957 57.8518 46.9671 57.7502 46.8723 57.6554L46.8791 57.6487ZM58.1925 66.6399C58.1248 67.3305 57.942 67.933 57.6441 68.4679C57.3462 68.996 56.9671 69.4564 56.5135 69.8423C56.0531 70.2282 55.5453 70.5464 54.9901 70.7902C54.4281 71.0339 53.8594 71.2099 53.2704 71.3115C52.6814 71.4131 52.1126 71.4537 51.5642 71.4198C50.8872 71.386 50.2711 71.2303 49.7159 70.9459C49.1607 70.6683 48.7003 70.2959 48.3212 69.8288C47.942 69.3616 47.6712 68.82 47.5019 68.1971C47.3327 67.581 47.2921 66.9039 47.3733 66.1727C47.441 65.4415 47.6238 64.7441 47.9149 64.0806C48.2061 63.4171 48.5852 62.8281 49.0524 62.3135C49.5263 61.799 50.0747 61.3995 50.7044 61.1152C51.334 60.8308 52.0246 60.7089 52.7626 60.7495C53.311 60.7766 53.8594 60.8646 54.4146 61.0068C54.9698 61.149 55.4911 61.3657 55.9854 61.65C56.4796 61.9344 56.9061 62.3068 57.2717 62.7604C57.6373 63.214 57.9014 63.7624 58.0774 64.3988C58.2467 65.0353 58.2873 65.78 58.1993 66.6399H58.1925ZM58.6326 55.6175C58.3212 55.7123 57.9759 55.7529 57.59 55.7326C57.2243 55.7123 56.8926 55.6175 56.6015 55.4483C56.3103 55.279 56.0801 55.0556 55.9176 54.7848C55.7551 54.5139 55.6807 54.2296 55.6942 53.9114C55.7145 53.5864 55.8161 53.302 56.0057 53.0515C56.1952 52.801 56.4457 52.6114 56.7572 52.476C57.0686 52.3406 57.4072 52.2864 57.7728 52.3068C58.1587 52.3271 58.504 52.4219 58.7951 52.5911C59.0862 52.7604 59.3164 52.977 59.4857 53.2411C59.655 53.5119 59.7294 53.803 59.7159 54.128C59.6956 54.5342 59.5872 54.866 59.3909 55.1097C59.1946 55.3535 58.944 55.5227 58.6326 55.6175ZM68.5649 66.4706C68.5311 67.256 68.4295 67.9872 68.2602 68.6642C68.091 69.3413 67.8337 69.9371 67.4884 70.4449C67.1431 70.9527 66.6759 71.3454 66.0801 71.6229C65.4843 71.9005 64.7531 72.0292 63.8797 72.0156C62.9589 71.9005 62.1668 71.6229 61.5101 71.1761C60.8533 70.7292 60.3591 70.0928 60.0138 69.26C59.6753 68.4273 59.5195 67.3711 59.5399 66.0982L59.7565 62.063C59.8107 61.8802 59.8784 61.738 59.9596 61.6297C60.0409 61.5214 60.1627 61.4266 60.3252 61.3521C60.4877 61.2776 60.6976 61.2438 60.9684 61.2573C61.3476 61.2776 61.6387 61.3589 61.8486 61.4875C62.0585 61.6229 62.2142 61.7787 62.309 61.9479C62.4105 62.1172 62.485 62.3338 62.5324 62.5844L62.397 66.369C62.3631 67.0596 62.4105 67.6284 62.5392 68.082C62.6678 68.5356 62.8574 68.8809 63.0876 69.1179C63.3246 69.3548 63.5818 69.5038 63.8594 69.5715C64.225 69.5376 64.5365 69.3887 64.787 69.1382C65.0375 68.8809 65.2338 68.4679 65.3828 67.9059C65.525 67.344 65.6265 66.5789 65.6739 65.6243L65.7958 62.6994C65.8161 62.4828 65.8635 62.3068 65.9312 62.1713C65.9989 62.0359 66.1208 61.9141 66.29 61.8193C66.4661 61.7177 66.7098 61.6771 67.0348 61.6974C67.3665 61.7177 67.6373 61.7922 67.8472 61.9208C68.0571 62.0495 68.2128 62.2052 68.3144 62.3745C68.416 62.5505 68.4972 62.7198 68.5446 62.8958C68.592 63.0718 68.6258 63.2749 68.6326 63.5187L68.5581 66.4774L68.5649 66.4706ZM69.1675 59.3548C69.0862 59.497 68.9644 59.6121 68.7883 59.7069C68.6191 59.8017 68.3753 59.8423 68.0639 59.822C67.7524 59.8084 67.4952 59.734 67.2988 59.6121C67.1025 59.4902 66.9468 59.3413 66.8452 59.172C66.7369 59.0028 66.6489 58.8064 66.5744 58.5762C66.5473 58.4002 66.527 58.2512 66.5067 58.0887C66.4457 58.082 66.3916 58.0684 66.3239 58.0617C65.8838 57.994 65.4369 57.9466 64.9765 57.9195C64.5568 57.8924 64.1506 57.8856 63.7579 57.8992C63.724 58.1158 63.6834 58.3528 63.636 58.6507C63.5615 58.8538 63.4735 59.0163 63.3652 59.1382C63.2636 59.26 63.1079 59.3616 62.9116 59.4361C62.7152 59.5105 62.4512 59.5173 62.1329 59.4564C61.7809 59.3819 61.5101 59.2668 61.3273 59.1043C61.1445 58.9418 61.009 58.7726 60.9346 58.5898C60.8601 58.407 60.8195 58.1835 60.8059 57.9263C60.8872 57.0799 61.0564 56.2133 61.3137 55.3399C61.5778 54.4665 61.8689 53.5796 62.2007 52.6927C62.5798 51.8261 62.9251 51.1558 63.2365 50.6818C63.548 50.2079 63.8391 49.8626 64.1032 49.6527C64.3672 49.4428 64.6177 49.3074 64.8615 49.2668C65.0984 49.2194 65.3422 49.2059 65.5927 49.2194C65.7755 49.1991 65.9921 49.2465 66.2359 49.3684C66.4796 49.4902 66.7233 49.673 66.9738 49.9168C67.2243 50.1605 67.4545 50.4584 67.6644 50.8105C67.8743 51.1625 68.0233 51.562 68.118 52.0089C68.2061 52.3135 68.3144 52.713 68.443 53.2005C68.5649 53.6879 68.6935 54.2363 68.8154 54.8389C68.9373 55.4483 69.0456 56.0847 69.1404 56.7685C69.2352 57.4455 69.2961 58.1429 69.3232 58.8403C69.2893 59.0434 69.2352 59.2194 69.1607 59.3548H69.1675ZM77.3191 63.8572C77.265 64.1212 77.1566 64.3176 77.0145 64.4327C76.8655 64.5478 76.7166 64.6155 76.5473 64.6358C76.3848 64.6561 76.1817 64.6426 75.9312 64.6087C75.552 64.4598 75.1661 64.3988 74.7667 64.4259C74.374 64.453 74.0151 64.5342 73.6902 64.6697C73.3719 64.8051 73.1147 64.9608 72.9319 65.13C72.7423 65.3061 72.6678 65.4618 72.7017 65.604C72.7355 65.7462 72.8709 65.8883 73.0944 66.0238C73.3178 66.1592 73.6021 66.3081 73.9339 66.4638C74.2724 66.6196 74.6177 66.7956 74.9833 66.9919C75.3422 67.1815 75.6807 67.3982 75.9854 67.6351C76.29 67.8721 76.527 68.1429 76.6963 68.4408C76.9806 68.9554 77.1296 69.4158 77.1296 69.8423C77.1296 70.2621 77.0348 70.6412 76.8317 70.9662C76.6285 71.298 76.3645 71.5688 76.026 71.7922C75.6875 72.0156 75.3218 72.1781 74.9224 72.3C74.5229 72.4219 74.1235 72.476 73.724 72.4625C73.1079 72.4489 72.573 72.4015 72.1194 72.3203C71.6658 72.2391 71.2866 72.1375 70.9955 72.0224C70.6976 71.9073 70.3997 71.7719 70.1086 71.6026C69.9529 71.4943 69.8242 71.3927 69.7294 71.298C69.6346 71.2032 69.5398 71.0881 69.4654 70.9527C69.3841 70.8173 69.3435 70.6683 69.3367 70.5058C69.33 70.3433 69.3774 70.1741 69.4857 69.998C69.6008 69.8017 69.743 69.6663 69.8987 69.5918C70.0544 69.5173 70.2034 69.4835 70.3388 69.4767C70.4809 69.4767 70.6434 69.497 70.8398 69.5512C71.2122 69.7137 71.5845 69.8288 71.9705 69.91C72.3564 69.9913 72.7152 70.0319 73.0605 70.0319C73.399 70.0319 73.6834 69.998 73.9136 69.9168C74.1438 69.8355 74.2724 69.7204 74.3063 69.5579C74.3198 69.4632 74.2792 69.3616 74.1844 69.26C74.0896 69.1585 73.9407 69.0569 73.7579 68.9554C73.5683 68.8538 73.3449 68.7455 73.0808 68.6304C72.8168 68.5153 72.5256 68.3799 72.2142 68.2377C72.0246 68.1429 71.808 68.0075 71.5642 67.8382C71.3205 67.669 71.0768 67.4659 70.8466 67.2221C70.6096 66.9852 70.4065 66.7211 70.2372 66.43C70.0679 66.1389 69.9529 65.8342 69.8987 65.5024C69.8378 65.1774 69.8648 64.8321 69.9799 64.4733C70.0883 64.1145 70.3185 63.7489 70.6638 63.3765C71.009 63.0041 71.3747 62.7198 71.7741 62.5099C72.1668 62.3068 72.5663 62.1646 72.9725 62.0766C73.3787 61.9953 73.7646 61.9547 74.1302 61.9615C74.4958 61.9615 74.8208 61.9885 75.1052 62.0359C75.3895 62.0833 75.6942 62.151 76.026 62.2458C76.2291 62.3203 76.3984 62.3948 76.5405 62.476C76.6827 62.5573 76.8249 62.6521 76.9603 62.7739C77.1025 62.8958 77.2108 63.0447 77.2853 63.2208C77.3598 63.3968 77.3801 63.6067 77.3327 63.8572H77.3191Z" fill="#F34677"/>
<path d="M65.8041 53.8909C65.6957 53.4441 65.5874 53.0176 65.4655 52.6113C65.364 52.8415 65.2489 53.1123 65.1135 53.4102C64.9781 53.7081 64.8427 54.0196 64.714 54.331C64.5854 54.6425 64.4771 54.9336 64.4026 55.1977C64.3281 55.4956 64.2604 55.7461 64.1995 55.9695C64.2469 55.9695 64.2942 55.9559 64.3416 55.9492C64.8223 55.9086 65.3166 55.8882 65.8176 55.9086C65.9462 55.9086 66.0817 55.9289 66.2171 55.9356C66.19 55.7731 66.1629 55.6174 66.1358 55.4888C66.0207 54.8794 65.9056 54.3513 65.7973 53.8977L65.8041 53.8909Z" fill="#F34677"/>
<path d="M54.611 64.0127C54.3876 63.7893 54.1235 63.62 53.8188 63.5117C53.5142 63.3966 53.2095 63.3356 52.898 63.3153C52.5866 63.3018 52.2819 63.3627 51.9976 63.5049C51.7064 63.6471 51.4492 63.8434 51.219 64.1007C50.9888 64.358 50.7992 64.6626 50.6502 65.0079C50.5013 65.36 50.4065 65.7324 50.3659 66.1251C50.3185 66.6532 50.3659 67.1136 50.4945 67.4995C50.6299 67.8922 50.8466 68.1901 51.1513 68.4067C51.4559 68.6234 51.8148 68.7452 52.2345 68.7656C52.4918 68.7791 52.7559 68.7588 53.0132 68.7046C53.2772 68.6505 53.5277 68.5489 53.7714 68.4135C54.0152 68.2781 54.2386 68.102 54.4485 67.8922C54.6584 67.6823 54.8276 67.4318 54.963 67.1406C55.1052 66.8495 55.1865 66.5245 55.2203 66.1589C55.2677 65.6511 55.2339 65.2246 55.1188 64.8725C55.0037 64.5205 54.8344 64.2361 54.6042 64.0127H54.611Z" fill="#F34677"/>
<path d="M16.9889 78.9216C16.7791 78.9013 16.5759 78.8945 16.3728 78.8945C13.5631 78.8945 11.1866 80.7903 10.9361 83.3427C10.6653 86.078 12.947 88.5492 16.0208 88.8471C19.0946 89.145 21.8095 87.1681 22.0736 84.4328C22.3444 81.6975 20.0627 79.2263 16.9889 78.9284V78.9216Z" fill="#F34677"/>
<path d="M70.3099 80.6687C69.836 80.5198 69.3485 80.4453 68.8543 80.4453C68.1163 80.4453 67.3715 80.6078 66.6606 80.9328C65.4758 81.4744 64.5618 82.3952 64.0811 83.5259C63.6139 84.6227 63.6139 85.7872 64.0811 86.8028C64.5482 87.8184 65.4352 88.5767 66.5659 88.9355C67.7371 89.3079 69.0371 89.2131 70.2151 88.6714C71.4 88.1298 72.314 87.209 72.7947 86.0784C73.2619 84.9815 73.2619 83.817 72.7947 82.8014C72.3275 81.7859 71.4406 81.0276 70.3099 80.6687Z" fill="#F34677"/>
</svg>
